<mxfile host="app.diagrams.net" agent="Mozilla/5.0 (Windows NT 10.0; Win64; x64) AppleWebKit/537.36 (KHTML, like Gecko) Chrome/135.0.0.0 Safari/537.36 OPR/120.0.0.0" version="27.0.9">
  <diagram name="Page-1" id="WmxGxiq8BBY9S6GBaUcp">
    <mxGraphModel dx="1159" dy="730" grid="1" gridSize="10" guides="1" tooltips="1" connect="1" arrows="1" fold="1" page="1" pageScale="1" pageWidth="850" pageHeight="1100" math="0" shadow="0">
      <root>
        <mxCell id="0" />
        <mxCell id="1" parent="0" />
        <mxCell id="N_aSas_H1awSW8-Ezgfg-10" style="edgeStyle=orthogonalEdgeStyle;rounded=0;orthogonalLoop=1;jettySize=auto;html=1;exitX=0.5;exitY=0;exitDx=0;exitDy=0;entryX=0.5;entryY=1;entryDx=0;entryDy=0;endArrow=ERmany;endFill=0;" edge="1" parent="1" source="N_aSas_H1awSW8-Ezgfg-1" target="N_aSas_H1awSW8-Ezgfg-2">
          <mxGeometry relative="1" as="geometry" />
        </mxCell>
        <mxCell id="N_aSas_H1awSW8-Ezgfg-19" value="Parent&amp;nbsp;&lt;span style=&quot;background-color: light-dark(#ffffff, var(--ge-dark-color, #121212)); color: light-dark(rgb(0, 0, 0), rgb(255, 255, 255));&quot;&gt;referencing&lt;/span&gt;" style="edgeLabel;html=1;align=center;verticalAlign=middle;resizable=0;points=[];" vertex="1" connectable="0" parent="N_aSas_H1awSW8-Ezgfg-10">
          <mxGeometry x="0.0667" y="1" relative="1" as="geometry">
            <mxPoint x="1" y="3" as="offset" />
          </mxGeometry>
        </mxCell>
        <mxCell id="N_aSas_H1awSW8-Ezgfg-11" style="edgeStyle=orthogonalEdgeStyle;rounded=0;orthogonalLoop=1;jettySize=auto;html=1;exitX=1;exitY=0.5;exitDx=0;exitDy=0;entryX=0.5;entryY=1;entryDx=0;entryDy=0;endArrow=ERmany;endFill=0;startArrow=ERmany;startFill=0;" edge="1" parent="1" source="N_aSas_H1awSW8-Ezgfg-1" target="N_aSas_H1awSW8-Ezgfg-4">
          <mxGeometry relative="1" as="geometry" />
        </mxCell>
        <mxCell id="N_aSas_H1awSW8-Ezgfg-12" style="edgeStyle=orthogonalEdgeStyle;rounded=0;orthogonalLoop=1;jettySize=auto;html=1;exitX=0.25;exitY=1;exitDx=0;exitDy=0;entryX=0.5;entryY=0;entryDx=0;entryDy=0;endArrow=ERmany;endFill=0;startArrow=ERmany;startFill=0;" edge="1" parent="1" source="N_aSas_H1awSW8-Ezgfg-1" target="N_aSas_H1awSW8-Ezgfg-5">
          <mxGeometry relative="1" as="geometry" />
        </mxCell>
        <mxCell id="N_aSas_H1awSW8-Ezgfg-13" style="edgeStyle=orthogonalEdgeStyle;rounded=0;orthogonalLoop=1;jettySize=auto;html=1;exitX=0.75;exitY=1;exitDx=0;exitDy=0;entryX=0.5;entryY=0;entryDx=0;entryDy=0;endArrow=ERmany;endFill=0;startArrow=ERmany;startFill=0;" edge="1" parent="1" source="N_aSas_H1awSW8-Ezgfg-1" target="N_aSas_H1awSW8-Ezgfg-6">
          <mxGeometry relative="1" as="geometry" />
        </mxCell>
        <mxCell id="N_aSas_H1awSW8-Ezgfg-1" value="&lt;font style=&quot;font-size: 18px;&quot;&gt;users&lt;/font&gt;" style="rounded=0;whiteSpace=wrap;html=1;fillColor=#60a917;fontColor=#ffffff;strokeColor=#2D7600;" vertex="1" parent="1">
          <mxGeometry x="360" y="320" width="120" height="60" as="geometry" />
        </mxCell>
        <mxCell id="N_aSas_H1awSW8-Ezgfg-17" style="edgeStyle=orthogonalEdgeStyle;rounded=0;orthogonalLoop=1;jettySize=auto;html=1;exitX=0;exitY=0.5;exitDx=0;exitDy=0;entryX=1;entryY=0.5;entryDx=0;entryDy=0;endArrow=ERmany;endFill=0;" edge="1" parent="1" source="N_aSas_H1awSW8-Ezgfg-2" target="N_aSas_H1awSW8-Ezgfg-3">
          <mxGeometry relative="1" as="geometry" />
        </mxCell>
        <mxCell id="N_aSas_H1awSW8-Ezgfg-18" style="edgeStyle=orthogonalEdgeStyle;rounded=0;orthogonalLoop=1;jettySize=auto;html=1;exitX=1;exitY=0.5;exitDx=0;exitDy=0;entryX=0;entryY=0.5;entryDx=0;entryDy=0;endArrow=ERmany;endFill=0;" edge="1" parent="1" source="N_aSas_H1awSW8-Ezgfg-2" target="N_aSas_H1awSW8-Ezgfg-4">
          <mxGeometry relative="1" as="geometry" />
        </mxCell>
        <mxCell id="N_aSas_H1awSW8-Ezgfg-24" value="Users references" style="edgeLabel;html=1;align=center;verticalAlign=middle;resizable=0;points=[];" vertex="1" connectable="0" parent="N_aSas_H1awSW8-Ezgfg-18">
          <mxGeometry x="-0.1857" y="1" relative="1" as="geometry">
            <mxPoint x="13" y="1" as="offset" />
          </mxGeometry>
        </mxCell>
        <mxCell id="N_aSas_H1awSW8-Ezgfg-2" value="&lt;font style=&quot;font-size: 18px;&quot;&gt;posts&lt;/font&gt;" style="rounded=0;whiteSpace=wrap;html=1;fillColor=#60a917;fontColor=#ffffff;strokeColor=#2D7600;" vertex="1" parent="1">
          <mxGeometry x="360" y="180" width="120" height="60" as="geometry" />
        </mxCell>
        <mxCell id="N_aSas_H1awSW8-Ezgfg-3" value="&lt;font style=&quot;font-size: 18px;&quot;&gt;comments&lt;/font&gt;" style="rounded=0;whiteSpace=wrap;html=1;fillColor=#60a917;fontColor=#ffffff;strokeColor=#2D7600;" vertex="1" parent="1">
          <mxGeometry x="100" y="180" width="120" height="60" as="geometry" />
        </mxCell>
        <mxCell id="N_aSas_H1awSW8-Ezgfg-4" value="&lt;font style=&quot;font-size: 18px;&quot;&gt;likes&lt;/font&gt;" style="rounded=0;whiteSpace=wrap;html=1;fillColor=#60a917;fontColor=#ffffff;strokeColor=#2D7600;" vertex="1" parent="1">
          <mxGeometry x="620" y="180" width="120" height="60" as="geometry" />
        </mxCell>
        <mxCell id="N_aSas_H1awSW8-Ezgfg-5" value="&lt;font style=&quot;font-size: 18px;&quot;&gt;followings&lt;/font&gt;" style="rounded=0;whiteSpace=wrap;html=1;fillColor=#60a917;fontColor=#ffffff;strokeColor=#2D7600;" vertex="1" parent="1">
          <mxGeometry x="240" y="480" width="120" height="60" as="geometry" />
        </mxCell>
        <mxCell id="N_aSas_H1awSW8-Ezgfg-6" value="&lt;font style=&quot;font-size: 18px;&quot;&gt;followers&lt;/font&gt;" style="rounded=0;whiteSpace=wrap;html=1;fillColor=#60a917;fontColor=#ffffff;strokeColor=#2D7600;" vertex="1" parent="1">
          <mxGeometry x="480" y="480" width="120" height="60" as="geometry" />
        </mxCell>
        <mxCell id="N_aSas_H1awSW8-Ezgfg-15" value="" style="edgeStyle=orthogonalEdgeStyle;fontSize=12;html=1;endArrow=ERmany;rounded=0;entryX=0.5;entryY=1;entryDx=0;entryDy=0;strokeColor=default;exitX=0;exitY=0.5;exitDx=0;exitDy=0;endFill=0;" edge="1" parent="1" source="N_aSas_H1awSW8-Ezgfg-1" target="N_aSas_H1awSW8-Ezgfg-3">
          <mxGeometry width="100" height="100" relative="1" as="geometry">
            <mxPoint x="90" y="410" as="sourcePoint" />
            <mxPoint x="170" y="310" as="targetPoint" />
          </mxGeometry>
        </mxCell>
        <mxCell id="N_aSas_H1awSW8-Ezgfg-21" value="Parent&amp;nbsp;&lt;span style=&quot;background-color: light-dark(#ffffff, var(--ge-dark-color, #121212)); color: light-dark(rgb(0, 0, 0), rgb(255, 255, 255));&quot;&gt;referencing&lt;/span&gt;" style="edgeLabel;html=1;align=center;verticalAlign=middle;resizable=0;points=[];" vertex="1" connectable="0" parent="1">
          <mxGeometry x="290" y="220" as="geometry" />
        </mxCell>
        <mxCell id="N_aSas_H1awSW8-Ezgfg-25" value="Followings references" style="edgeLabel;html=1;align=center;verticalAlign=middle;resizable=0;points=[];" vertex="1" connectable="0" parent="1">
          <mxGeometry x="320" y="420" as="geometry">
            <mxPoint x="5" y="1" as="offset" />
          </mxGeometry>
        </mxCell>
        <mxCell id="N_aSas_H1awSW8-Ezgfg-26" value="Followers references" style="edgeLabel;html=1;align=center;verticalAlign=middle;resizable=0;points=[];" vertex="1" connectable="0" parent="1">
          <mxGeometry x="510" y="420" as="geometry">
            <mxPoint x="3" y="-2" as="offset" />
          </mxGeometry>
        </mxCell>
      </root>
    </mxGraphModel>
  </diagram>
</mxfile>
